<?xml version="1.0" standalone="no"?>
<!DOCTYPE svg PUBLIC "-//W3C//DTD SVG 20010904//EN"
 "http://www.w3.org/TR/2001/REC-SVG-20010904/DTD/svg10.dtd">
<svg version="1.0" xmlns="http://www.w3.org/2000/svg"
 width="524.000000pt" height="465.000000pt" viewBox="0 0 524.000000 465.000000"
 preserveAspectRatio="xMidYMid meet">

<g transform="translate(0.000000,465.000000) scale(0.100000,-0.100000)"
fill="#000000" stroke="none">
<path d="M3013 4140 c-151 -40 -266 -119 -363 -251 l-59 -79 -45 59 c-114 148
-240 227 -415 263 -100 20 -107 20 -187 4 -121 -24 -186 -51 -267 -112 -176
-132 -281 -351 -294 -612 l-6 -113 -56 7 c-72 8 -211 -24 -292 -67 -126 -68
-258 -224 -298 -354 -58 -187 -65 -312 -25 -479 45 -188 123 -329 243 -437 90
-82 157 -118 276 -148 l105 -26 -35 -58 c-149 -247 -170 -576 -53 -811 32 -64
122 -189 159 -222 143 -124 338 -198 519 -198 83 0 119 7 290 53 414 113 432
114 835 19 225 -53 309 -58 438 -24 123 32 223 80 307 149 164 134 253 306
280 543 19 168 -43 397 -151 561 -24 37 -30 33 78 58 123 29 245 115 338 239
158 210 219 516 152 760 -15 54 -41 125 -59 157 -64 121 -212 251 -323 284
-106 32 -199 46 -246 37 l-46 -9 -6 96 c-20 345 -213 628 -478 701 -113 31
-224 35 -316 10z m280 -248 c27 -12 66 -35 87 -52 53 -42 127 -156 158 -243
24 -64 26 -87 27 -212 0 -156 -18 -243 -75 -355 -35 -70 -122 -167 -188 -209
-216 -138 -477 -13 -567 272 -106 335 50 728 325 818 46 15 181 4 233 -19z
m-1124 -14 c80 -30 192 -145 249 -254 53 -103 72 -184 72 -304 -1 -378 -233
-634 -506 -555 -165 47 -303 211 -348 412 -23 102 -21 270 3 366 73 285 292
423 530 335z m1802 -782 c195 -45 320 -242 306 -477 -6 -96 -49 -239 -94 -317
-39 -66 -133 -156 -195 -188 -75 -39 -190 -45 -270 -14 -108 40 -200 155 -233
291 -36 145 -6 345 71 476 64 111 191 214 286 232 61 12 67 12 129 -3z m-2525
-71 c95 -47 174 -131 225 -240 49 -107 60 -159 60 -282 1 -212 -84 -370 -237
-440 -48 -22 -66 -25 -137 -22 -69 3 -94 10 -149 37 -128 63 -231 206 -273
381 -35 144 -7 331 63 434 117 170 277 217 448 132z m1276 -326 c140 -30 228
-96 382 -288 51 -64 146 -174 211 -246 373 -411 488 -583 514 -771 12 -83 -2
-214 -30 -286 -62 -158 -191 -273 -364 -323 -82 -24 -174 -16 -385 33 -96 22
-224 49 -284 58 -140 23 -223 13 -493 -57 -314 -82 -313 -81 -383 -76 -281 24
-489 246 -490 525 0 75 27 195 61 270 54 121 187 298 474 638 56 66 139 169
185 229 141 185 227 254 357 290 60 17 176 18 245 4z"/>
</g>
</svg>
